<svg width="73" height="83" viewBox="0 0 73 83" fill="none" xmlns="http://www.w3.org/2000/svg">
<path d="M23.037 33.7371L17.4198 33.7371L17.4198 44.5396C18.1111 49.7248 22.0288 51.0211 23.9012 51.0211C28.3951 51.7124 33.8395 43.8194 36 39.7865L36 56.6383C30.8148 65.2803 21.4527 64.5601 17.4198 63.1198C9.46913 60.7001 6.90535 51.4532 6.61728 47.1322L6.61728 33.305L0.999999 33.305L12.2346 20.342L23.037 33.7371Z" fill="#008938"/>
<path d="M48.963 33.7371L54.5802 33.7371L54.5802 44.5396C53.8889 49.7248 49.9712 51.0211 48.0988 51.0211C43.6049 51.7124 38.1605 43.8194 36 39.7865L36 56.6383C41.1852 65.2803 50.5473 64.5602 54.5802 63.1198C62.5309 60.7001 65.0946 51.4532 65.3827 47.1322L65.3827 33.305L71 33.305L59.7654 20.342L48.963 33.7371Z" fill="#F2B700"/>
</svg>
