<svg width="36" height="30" viewBox="0 0 36 30" fill="none" xmlns="http://www.w3.org/2000/svg">
<path d="M5.17884 5.93199L9.0432 5.67871C9.0432 5.67871 8.03235 4.43377 7.85282 2.88919C7.74351 1.94883 8.4807 0.839365 8.38316 0.000161693L4.5188 0.253445C4.5188 0.253445 4.1279 2.33363 4.25678 3.44243C4.38567 4.55124 5.17884 5.93199 5.17884 5.93199Z" fill="#FCC503"/>
<path d="M6.52885 17.7446L4.50646 14.5863C4.50646 14.5863 3.92364 16.0258 2.69787 16.9005C1.9516 17.4331 0.665983 17.3269 -3.25968e-06 17.8022L1.65431 19.8555C1.65431 19.8555 3.96916 20.319 4.8491 19.691C5.72904 19.0631 6.52885 17.7446 6.52885 17.7446Z" fill="#FCC503"/>
<path d="M28.2618 22.532L25.9791 26.9389C25.9791 26.9389 28.0145 26.6549 29.8278 27.4814C30.9318 27.9846 31.6604 29.5284 32.6456 29.9775L34.9283 25.5705C34.9283 25.5705 32.9054 23.7634 31.6037 23.1701C30.302 22.5768 28.2618 22.532 28.2618 22.532Z" fill="#FCC503"/>
</svg>
