<svg width="36" height="31" viewBox="0 0 36 31" fill="none" xmlns="http://www.w3.org/2000/svg">
<path d="M5.1788 6.84117L9.04316 6.58789C9.04316 6.58789 8.03231 5.34295 7.85278 3.79837C7.74348 2.85801 8.48067 1.74854 8.38312 0.909341L4.51876 1.16263C4.51876 1.16263 4.12787 3.24281 4.25675 4.35161C4.38563 5.46041 5.1788 6.84117 5.1788 6.84117Z" fill="#FCC503"/>
<path d="M6.52881 18.6541L4.50642 15.4957C4.50642 15.4957 3.9236 16.9352 2.69783 17.8099C1.95156 18.3425 0.665945 18.2363 -4.14067e-05 18.7116L1.65428 20.765C1.65428 20.765 3.96912 21.2284 4.84906 20.6005C5.729 19.9725 6.52881 18.6541 6.52881 18.6541Z" fill="#FCC503"/>
<path d="M28.2618 23.4414L25.9791 27.8483C25.9791 27.8483 28.0146 27.5643 29.8279 28.3908C30.9318 28.894 31.6604 30.4378 32.6456 30.8869L34.9283 26.48C34.9283 26.48 32.9054 24.6728 31.6037 24.0795C30.302 23.4862 28.2618 23.4414 28.2618 23.4414Z" fill="#FCC503"/>
</svg>
