<svg width="106" height="36" viewBox="0 0 106 36" fill="none" xmlns="http://www.w3.org/2000/svg">
<path d="M27.5622 24.0863L35.2497 24.5901C35.2497 24.5901 33.2388 27.0667 32.8816 30.1394C32.6642 32.0101 34.1307 34.2172 33.9367 35.8866L26.2492 35.3828C26.2492 35.3828 25.4715 31.2446 25.7279 29.0388C25.9843 26.833 27.5622 24.0863 27.5622 24.0863Z" fill="#098D42"/>
<path d="M105.228 18.2615L104.279 21.89C104.279 21.89 103.28 20.7008 101.845 20.2473C100.97 19.9712 99.7802 20.4691 99 20.2227L99.9395 17.7589C99.9395 17.7589 101.998 16.6033 103.029 16.9288C104.06 17.2544 105.228 18.2615 105.228 18.2615Z" fill="#098D42"/>
<path d="M28.291 12.2324L26.2686 15.3908C26.2686 15.3908 25.6858 13.9513 24.46 13.0765C23.7138 12.544 22.4282 12.6501 21.7622 12.1749L23.4165 10.1215C23.4165 10.1215 25.7313 9.65807 26.6113 10.286C27.4912 10.914 28.291 12.2324 28.291 12.2324Z" fill="#098D42"/>
<path d="M50.0239 7.44557L47.7413 3.03865C47.7413 3.03865 49.7767 3.32263 51.59 2.49613C52.694 1.99294 53.4226 0.44914 54.4078 8.7199e-05L56.6905 4.40701C56.6905 4.40701 54.6676 6.21413 53.3659 6.80745C52.0641 7.40076 50.0239 7.44557 50.0239 7.44557Z" fill="#098D42"/>
<path d="M1.69284 13.3113L1.05714e-05 10.0431C1.05714e-05 10.0431 1.50949 10.2537 2.85423 9.64079C3.67294 9.26763 4.21325 8.12275 4.94388 7.78973L6.63671 11.0579C6.63671 11.0579 5.13655 12.398 4.17119 12.838C3.20584 13.278 1.69284 13.3113 1.69284 13.3113Z" fill="#098D42"/>
</svg>
