<svg width="106" height="37" viewBox="0 0 106 37" fill="none" xmlns="http://www.w3.org/2000/svg">
<path d="M27.5622 25.0819L35.2497 25.5857C35.2497 25.5857 33.2388 28.0623 32.8816 31.135C32.6642 33.0057 34.1307 35.2128 33.9367 36.8823L26.2492 36.3784C26.2492 36.3784 25.4715 32.2402 25.7279 30.0344C25.9843 27.8287 27.5622 25.0819 27.5622 25.0819Z" fill="#FCC503"/>
<path d="M105.228 19.2568L104.279 22.8853C104.279 22.8853 103.28 21.6961 101.845 21.2426C100.97 20.9665 99.7802 21.4645 99 21.2181L99.9395 18.7542C99.9395 18.7542 101.998 17.5987 103.029 17.9242C104.06 18.2498 105.228 19.2568 105.228 19.2568Z" fill="#FCC503"/>
<path d="M28.291 13.228L26.2686 16.3864C26.2686 16.3864 25.6858 14.9469 24.46 14.0721C23.7138 13.5396 22.4282 13.6457 21.7622 13.1705L23.4165 11.1171C23.4165 11.1171 25.7313 10.6537 26.6113 11.2816C27.4912 11.9096 28.291 13.228 28.291 13.228Z" fill="#FCC503"/>
<path d="M50.0239 8.44093L47.7412 4.03401C47.7412 4.03401 49.7766 4.31799 51.59 3.49149C52.6939 2.98831 53.4225 1.4445 54.4077 0.995448L56.6904 5.40237C56.6904 5.40237 54.6675 7.20949 53.3658 7.80281C52.0641 8.39613 50.0239 8.44093 50.0239 8.44093Z" fill="#FCC503"/>
<path d="M1.69284 14.3069L1.05095e-05 11.0387C1.05095e-05 11.0387 1.50949 11.2493 2.85423 10.6364C3.67294 10.2632 4.21325 9.11836 4.94388 8.78534L6.63671 12.0535C6.63671 12.0535 5.13655 13.3936 4.17119 13.8336C3.20584 14.2736 1.69284 14.3069 1.69284 14.3069Z" fill="#FCC503"/>
</svg>
