<svg width="22" height="22" viewBox="0 0 22 22" fill="none" xmlns="http://www.w3.org/2000/svg">
<path d="M11 18.3334L10.5939 19.2472C10.8524 19.3621 11.1476 19.3621 11.4061 19.2472L11 18.3334ZM9.86331 4.9324L10.5832 4.23827L10.5832 4.23827L9.86331 4.9324ZM12.1367 4.9324L11.4168 4.23826L11.4168 4.23826L12.1367 4.9324ZM10.3401 5.4269L9.6203 6.12103L9.6203 6.12103L10.3401 5.4269ZM11.6599 5.4269L10.94 4.73276L10.94 4.73276L11.6599 5.4269ZM9.14346 5.62654L9.6203 6.12103L11.06 4.73276L10.5832 4.23827L9.14346 5.62654ZM12.3797 6.12103L12.8565 5.62654L11.4168 4.23826L10.94 4.73276L12.3797 6.12103ZM15.0831 2.66675C13.7008 2.66675 12.3828 3.23655 11.4168 4.23826L12.8565 5.62654C13.4535 5.00748 14.2552 4.66675 15.0831 4.66675V2.66675ZM20.25 8.90462C20.25 7.02396 19.7335 5.46551 18.7903 4.35997C17.8386 3.24431 16.5144 2.66675 15.0831 2.66675V4.66675C15.9531 4.66675 16.7124 5.00585 17.2688 5.658C17.8337 6.32026 18.25 7.38074 18.25 8.90462H20.25ZM6.91688 4.66675C7.74481 4.66675 8.54652 5.00749 9.14346 5.62654L10.5832 4.23827C9.61721 3.23655 8.2992 2.66675 6.91688 2.66675V4.66675ZM3.75 8.90462C3.75 7.3764 4.16049 6.31637 4.72085 5.65598C5.27089 5.00777 6.02798 4.66675 6.91688 4.66675V2.66675C5.47223 2.66675 4.14588 3.2424 3.19587 4.36198C2.25618 5.4694 1.75 7.0283 1.75 8.90462H3.75ZM11 18.3334C11.4061 17.4196 11.4064 17.4197 11.4066 17.4198C11.4066 17.4198 11.4068 17.4199 11.4068 17.4199C11.4069 17.4199 11.4069 17.4199 11.4067 17.4199C11.4064 17.4197 11.4056 17.4194 11.4044 17.4188C11.4018 17.4177 11.3974 17.4156 11.391 17.4128C11.3783 17.407 11.3582 17.3977 11.331 17.385C11.2767 17.3596 11.1946 17.3205 11.0887 17.2682C10.8766 17.1633 10.5698 17.0056 10.2001 16.7983C9.4583 16.3822 8.4747 15.7728 7.49666 14.9965C5.48713 13.4016 3.75 11.3034 3.75 8.90462H1.75C1.75 12.268 4.13787 14.8841 6.25334 16.5631C7.33779 17.4238 8.4167 18.0911 9.22177 18.5427C9.62547 18.7691 9.96326 18.9429 10.2024 19.0611C10.322 19.1202 10.4171 19.1655 10.4837 19.1966C10.517 19.2122 10.5431 19.2242 10.5617 19.2327C10.5709 19.2369 10.5783 19.2402 10.5837 19.2427C10.5864 19.2439 10.5886 19.2449 10.5903 19.2456C10.5911 19.246 10.5918 19.2463 10.5924 19.2466C10.5927 19.2467 10.5931 19.2469 10.5932 19.247C10.5936 19.2471 10.5939 19.2472 11 18.3334ZM18.25 8.90462C18.25 11.3034 16.5129 13.4016 14.5033 14.9965C13.5253 15.7728 12.5417 16.3822 11.7999 16.7983C11.4302 17.0056 11.1234 17.1633 10.9113 17.2682C10.8054 17.3205 10.7233 17.3596 10.669 17.385C10.6418 17.3977 10.6217 17.407 10.609 17.4128C10.6026 17.4156 10.5982 17.4177 10.5956 17.4188C10.5944 17.4194 10.5936 17.4197 10.5933 17.4199C10.5931 17.4199 10.5931 17.4199 10.5932 17.4199C10.5932 17.4199 10.5934 17.4198 10.5934 17.4198C10.5936 17.4197 10.5939 17.4196 11 18.3334C11.4061 19.2472 11.4064 19.2471 11.4068 19.247C11.4069 19.2469 11.4073 19.2467 11.4076 19.2466C11.4082 19.2463 11.4089 19.246 11.4097 19.2456C11.4114 19.2449 11.4136 19.2439 11.4163 19.2427C11.4217 19.2402 11.4291 19.2369 11.4383 19.2327C11.4569 19.2242 11.483 19.2122 11.5163 19.1966C11.5829 19.1655 11.678 19.1202 11.7976 19.0611C12.0367 18.9429 12.3745 18.7691 12.7782 18.5427C13.5833 18.0911 14.6622 17.4238 15.7467 16.5631C17.8621 14.8841 20.25 12.268 20.25 8.90462H18.25ZM9.6203 6.12103C10.374 6.90269 11.626 6.90269 12.3797 6.12103L10.94 4.73276C10.9728 4.69878 11.0272 4.69878 11.06 4.73276L9.6203 6.12103Z" fill="#FF4200"/>
</svg>
