<svg width="27" height="24" viewBox="0 0 27 24" fill="none" xmlns="http://www.w3.org/2000/svg">
<path d="M15.6549 0.626864C14.508 -0.208953 12.9074 -0.208956 11.7605 0.626864L2.20663 7.5894C1.42621 8.15814 0.969238 9.03582 0.969238 9.96598V20.9966C0.969238 22.6553 2.39504 24 4.15385 24H8.40001C10.1588 24 11.5846 22.6553 11.5846 20.9966V17.9931C11.5846 16.8873 12.5352 15.9908 13.7077 15.9908C14.8802 15.9908 15.8308 16.8873 15.8308 17.9931V20.9966C15.8308 22.6553 17.2566 24 19.0154 24H23.2615C25.0204 24 26.4462 22.6553 26.4462 20.9966V9.96598C26.4462 9.03582 25.9892 8.15814 25.2088 7.5894L15.6549 0.626864Z" fill="#FBC200"/>
</svg>
