<svg width="23" height="24" viewBox="0 0 23 24" fill="none" xmlns="http://www.w3.org/2000/svg">
<path d="M11.1462 0C7.52768 0 4.59432 2.68629 4.59432 6C4.59432 9.31371 7.52768 12 11.1462 12C14.7646 12 17.698 9.31371 17.698 6C17.698 2.68629 14.7646 0 11.1462 0Z" fill="#FBC200"/>
<path d="M17.698 14L4.59432 14C3.09139 14 1.66447 14.5953 0.804384 15.5591C-0.100686 16.5734 -0.351108 17.9964 0.62414 19.3165C2.71717 22.1496 6.73516 24 11.1462 24C15.5572 24 19.5751 22.1496 21.6682 19.3165C22.6434 17.9964 22.393 16.5734 21.4879 15.5591C20.6278 14.5953 19.2009 14 17.698 14Z" fill="#FBC200"/>
</svg>
