<svg width="22" height="22" viewBox="0 0 22 22" fill="none" xmlns="http://www.w3.org/2000/svg">
<mask id="path-1-inside-1_714_868" fill="white">
<path d="M11 18.3334C11 18.3334 19.25 14.6667 19.25 8.90462C19.25 5.50008 17.3844 3.66675 15.0831 3.66675C13.978 3.66675 12.9181 4.12202 12.1367 4.9324L11.6599 5.4269C11.2994 5.80073 10.7006 5.80073 10.3401 5.4269L9.86331 4.9324C9.08187 4.12202 8.022 3.66675 6.91688 3.66675C4.58333 3.66675 2.75 5.50008 2.75 8.90462C2.75 14.6667 11 18.3334 11 18.3334Z"/>
</mask>
<path d="M11 18.3334C11 18.3334 19.25 14.6667 19.25 8.90462C19.25 5.50008 17.3844 3.66675 15.0831 3.66675C13.978 3.66675 12.9181 4.12202 12.1367 4.9324L11.6599 5.4269C11.2994 5.80073 10.7006 5.80073 10.3401 5.4269L9.86331 4.9324C9.08187 4.12202 8.022 3.66675 6.91688 3.66675C4.58333 3.66675 2.75 5.50008 2.75 8.90462C2.75 14.6667 11 18.3334 11 18.3334Z" fill="#FF4200"/>
<path d="M11 18.3334L6.12634 29.2992C9.22912 30.6782 12.7709 30.6782 15.8737 29.2992L11 18.3334ZM9.86331 4.9324L18.5014 -3.39722L18.5014 -3.39722L9.86331 4.9324ZM12.1367 4.9324L3.49856 -3.39723L3.49856 -3.39723L12.1367 4.9324ZM10.3401 5.4269L1.70201 13.7565L1.70201 13.7565L10.3401 5.4269ZM11.6599 5.4269L3.02173 -2.90273L3.02172 -2.90273L11.6599 5.4269ZM1.22517 13.262L1.70201 13.7565L18.9783 -2.90273L18.5014 -3.39722L1.22517 13.262ZM20.298 13.7565L20.7748 13.262L3.49856 -3.39723L3.02173 -2.90273L20.298 13.7565ZM15.0831 -8.33325C10.6517 -8.33325 6.49399 -6.5036 3.49856 -3.39723L20.7748 13.262C19.3423 14.7476 17.3043 15.6667 15.0831 15.6667V-8.33325ZM31.25 8.90462C31.25 5.06167 30.1819 0.764361 27.1588 -2.77922C24.0323 -6.44417 19.6014 -8.33325 15.0831 -8.33325V15.6667C12.8661 15.6667 10.5187 14.6943 8.90026 12.7972C7.38534 11.0214 7.25 9.34304 7.25 8.90462H31.25ZM6.91688 15.6667C4.69568 15.6667 2.65773 14.7476 1.22517 13.262L18.5014 -3.39722C15.506 -6.5036 11.3483 -8.33325 6.91688 -8.33325V15.6667ZM14.75 8.90462C14.75 9.29097 14.6342 10.9747 13.1082 12.773C11.4584 14.7173 9.0846 15.6667 6.91688 15.6667V-8.33325C2.41561 -8.33325 -2.04163 -6.46714 -5.1915 -2.75505C-8.21749 0.811066 -9.25 5.11374 -9.25 8.90462H14.75ZM11 18.3334C15.8737 7.36768 15.8768 7.36905 15.8798 7.37042C15.8808 7.37086 15.8838 7.37221 15.8858 7.37309C15.8898 7.37484 15.8936 7.37655 15.8973 7.37822C15.9047 7.38154 15.9117 7.38468 15.9183 7.38763C15.9314 7.39353 15.9428 7.39869 15.9525 7.40312C15.9719 7.41197 15.9847 7.41792 15.9914 7.42105C16.0046 7.42723 15.9941 7.42245 15.9632 7.40721C15.8999 7.37588 15.7639 7.30679 15.581 7.20419C15.1871 6.98332 14.7277 6.69211 14.335 6.38041C13.9011 6.03604 13.8668 5.9183 14.0074 6.12804C14.1825 6.38931 14.75 7.37025 14.75 8.90462H-9.25C-9.25 17.5729 -3.28309 23.0378 -0.584973 25.1792C1.08479 26.5045 2.68786 27.49 3.84092 28.1367C4.43143 28.4679 4.93997 28.7303 5.32777 28.922C5.52251 29.0183 5.68921 29.0979 5.82327 29.1606C5.89037 29.192 5.94953 29.2192 6.00016 29.2423C6.02549 29.2539 6.04871 29.2644 6.06976 29.2738C6.08028 29.2786 6.09026 29.2831 6.09969 29.2873C6.10441 29.2894 6.10899 29.2914 6.11343 29.2934C6.11565 29.2944 6.11888 29.2958 6.11999 29.2963C6.12318 29.2977 6.12634 29.2992 11 18.3334ZM7.25 8.90462C7.25 7.37025 7.81749 6.38931 7.99259 6.12804C8.13316 5.9183 8.09892 6.03604 7.66503 6.38041C7.27229 6.69211 6.81286 6.98332 6.41904 7.20419C6.23612 7.30679 6.10012 7.37588 6.03675 7.40721C6.00591 7.42245 5.99536 7.42723 6.00857 7.42105C6.01525 7.41792 6.02808 7.41197 6.0475 7.40312C6.05721 7.39869 6.0686 7.39353 6.08171 7.38763C6.08827 7.38468 6.09526 7.38154 6.1027 7.37822C6.10642 7.37655 6.11024 7.37484 6.11418 7.37309C6.11615 7.37221 6.11919 7.37086 6.12018 7.37042C6.12324 7.36905 6.12634 7.36768 11 18.3334C15.8737 29.2992 15.8768 29.2977 15.88 29.2963C15.8811 29.2958 15.8844 29.2944 15.8866 29.2934C15.891 29.2914 15.8956 29.2894 15.9003 29.2873C15.9097 29.2831 15.9197 29.2786 15.9302 29.2738C15.9513 29.2644 15.9745 29.2539 15.9998 29.2423C16.0505 29.2192 16.1096 29.192 16.1767 29.1606C16.3108 29.0979 16.4775 29.0183 16.6722 28.922C17.06 28.7303 17.5686 28.4679 18.1591 28.1367C19.3121 27.49 20.9152 26.5045 22.585 25.1792C25.2831 23.0378 31.25 17.5729 31.25 8.90462H7.25ZM1.70201 13.7565C6.78154 19.0242 15.2185 19.0242 20.298 13.7565L3.02172 -2.90273C7.38029 -7.42273 14.6197 -7.42273 18.9783 -2.90273L1.70201 13.7565Z" fill="#FF4200" mask="url(#path-1-inside-1_714_868)"/>
</svg>
