<svg width="366" height="205" viewBox="0 0 366 205" fill="none" xmlns="http://www.w3.org/2000/svg">
<path d="M152.177 43.0706L141.221 44.2221C141.144 43.3188 140.937 42.5137 140.6 41.8069C140.276 41.0988 139.823 40.5084 139.24 40.0358C138.67 39.5488 137.978 39.205 137.162 39.0042C136.346 38.7905 135.42 38.7381 134.384 38.847C132.571 39.0375 131.037 39.6415 129.781 40.6589C128.537 41.675 127.592 43.0439 126.945 44.7656C126.31 46.4859 125.993 48.505 125.993 50.8227C125.993 53.2706 126.317 55.2873 126.964 56.8729C127.625 58.4442 128.576 59.5811 129.819 60.2838C131.063 60.9734 132.558 61.2264 134.306 61.0426C135.304 60.9378 136.197 60.7202 136.987 60.3898C137.777 60.0464 138.463 59.6031 139.046 59.0601C139.629 58.5171 140.101 57.888 140.464 57.1728C140.839 56.4432 141.092 55.6419 141.221 54.769L152.177 53.6956C152.047 55.402 151.575 57.1769 150.759 59.0205C149.943 60.851 148.784 62.5874 147.282 64.2296C145.793 65.8575 143.947 67.2364 141.746 68.3662C139.545 69.496 136.987 70.214 134.073 70.5203C130.422 70.9041 127.145 70.4607 124.245 69.19C121.357 67.918 119.071 65.8405 117.388 62.9576C115.717 60.0732 114.882 56.4175 114.882 51.9905C114.882 47.5373 115.737 43.6975 117.446 40.471C119.156 37.2314 121.461 34.6779 124.361 32.8106C127.262 30.9302 130.499 29.8022 134.073 29.4265C136.586 29.1625 138.897 29.2646 141.008 29.7328C143.119 30.2011 144.97 31.0156 146.563 32.1763C148.156 33.324 149.438 34.8103 150.409 36.6353C151.38 38.4603 151.97 40.6054 152.177 43.0706ZM157.077 67.5557V27.5557L167.876 26.4205V42.0455L182.173 40.5429V24.9179L192.973 23.7828V63.7828L182.173 64.9179V49.2929L167.876 50.7955V66.4205L157.077 67.5557ZM208.9 22.1087V62.1087L198.101 63.2439V23.2439L208.9 22.1087ZM251.158 32.6673L240.203 33.8187C240.125 32.9155 239.918 32.1104 239.581 31.4036C239.257 30.6954 238.804 30.1051 238.221 29.6325C237.652 29.1455 236.959 28.8016 236.143 28.6009C235.327 28.3872 234.401 28.3347 233.365 28.4436C231.552 28.6342 230.018 29.2382 228.762 30.2556C227.519 31.2717 226.573 32.6406 225.926 34.3623C225.291 36.0826 224.974 38.1016 224.974 40.4193C224.974 42.8673 225.298 44.884 225.945 46.4696C226.606 48.0408 227.557 49.1778 228.801 49.8804C230.044 50.5701 231.539 50.823 233.288 50.6393C234.285 50.5345 235.178 50.3169 235.968 49.9865C236.758 49.643 237.444 49.1998 238.027 48.6568C238.61 48.1138 239.082 47.4847 239.445 46.7695C239.821 46.0399 240.073 45.2386 240.203 44.3656L251.158 43.2923C251.028 44.9986 250.556 46.7736 249.74 48.6171C248.924 50.4477 247.765 52.1841 246.263 53.8263C244.774 55.4542 242.928 56.833 240.727 57.9628C238.526 59.0927 235.968 59.8107 233.055 60.1169C229.403 60.5007 226.127 60.0573 223.226 58.7867C220.338 57.5147 218.053 55.4372 216.369 52.5542C214.699 49.6699 213.863 46.0142 213.863 41.5871C213.863 37.134 214.718 33.2942 216.427 30.0676C218.137 26.8281 220.442 24.2746 223.342 22.4072C226.243 20.5268 229.48 19.3988 233.055 19.0232C235.567 18.7591 237.878 18.8612 239.989 19.3295C242.1 19.7977 243.952 20.6122 245.544 21.7729C247.137 22.9206 248.419 24.407 249.39 26.232C250.362 28.057 250.951 30.2021 251.158 32.6673ZM256.058 57.1523V17.1523L266.858 16.0172V32.1891L267.401 32.1319L279.367 14.7024L291.954 13.3795L278.512 32.6048L292.264 53.3468L279.367 54.7024L270.432 40.6416L266.858 45.7047V56.0172L256.058 57.1523ZM295.159 53.0426V13.0426L323.829 10.0293V18.7793L305.959 20.6575V27.5325L322.353 25.8094V34.5594L305.959 36.2825V43.1575L323.751 41.2874V50.0374L295.159 53.0426ZM363.605 5.84864V45.8486L354.592 46.7959L340.218 27.2911L339.985 27.3156V48.3312L329.185 49.4663V9.46631L338.353 8.50268L352.494 27.9539L352.805 27.9213V6.98376L363.605 5.84864ZM12.4484 142.757L0.79383 143.982L13.9246 102.602L28.6871 101.05L41.8179 139.67L30.1633 140.895L21.4612 112.825L21.1504 112.858L12.4484 142.757ZM10.2729 127.204L32.1834 124.901V133.026L10.2729 135.329V127.204ZM50.7579 98.7302L58.9161 126.076L59.2268 126.043L67.385 96.9826L79.5835 95.7005L66.4527 137.081L51.6902 138.632L38.5594 100.012L50.7579 98.7302ZM119.442 111.511C119.442 115.964 118.581 119.811 116.859 123.052C115.136 126.28 112.812 128.836 109.885 130.719C106.959 132.589 103.695 133.713 100.095 134.091C96.4696 134.473 93.1934 134.029 90.2668 132.761C87.3532 131.479 85.0352 129.405 83.3129 126.539C81.6036 123.659 80.7489 120.005 80.7489 115.578C80.7489 111.125 81.6036 107.285 83.3129 104.059C85.0352 100.818 87.3532 98.2628 90.2668 96.394C93.1934 94.5109 96.4696 93.3788 100.095 92.9977C103.695 92.6194 106.959 93.0641 109.885 94.3321C112.812 95.587 115.136 97.6538 116.859 100.533C118.581 103.399 119.442 107.058 119.442 111.511ZM108.331 112.679C108.331 110.283 108.014 108.298 107.38 106.724C106.758 105.136 105.832 103.983 104.602 103.266C103.385 102.535 101.883 102.263 100.095 102.451C98.3084 102.639 96.7998 103.227 95.5696 104.216C94.3524 105.19 93.4265 106.537 92.792 108.258C92.1704 109.964 91.8596 112.014 91.8596 114.41C91.8596 116.806 92.1704 118.798 92.792 120.386C93.4265 121.96 94.3524 123.113 95.5696 123.845C96.7998 124.562 98.3084 124.826 100.095 124.638C101.883 124.451 103.385 123.869 104.602 122.895C105.832 121.907 106.758 120.559 107.38 118.853C108.014 117.133 108.331 115.075 108.331 112.679ZM161.578 102.083L150.623 103.234C150.545 102.331 150.338 101.526 150.001 100.819C149.678 100.111 149.224 99.5203 148.642 99.0477C148.072 98.5607 147.379 98.2168 146.563 98.0161C145.747 97.8024 144.821 97.75 143.785 97.8588C141.973 98.0494 140.438 98.6534 139.182 99.6708C137.939 100.687 136.993 102.056 136.346 103.777C135.711 105.498 135.394 107.517 135.394 109.835C135.394 112.282 135.718 114.299 136.365 115.885C137.026 117.456 137.978 118.593 139.221 119.296C140.464 119.985 141.96 120.238 143.708 120.055C144.705 119.95 145.598 119.732 146.388 119.402C147.178 119.058 147.865 118.615 148.447 118.072C149.03 117.529 149.503 116.9 149.865 116.185C150.241 115.455 150.493 114.654 150.623 113.781L161.578 112.708C161.449 114.414 160.976 116.189 160.16 118.032C159.344 119.863 158.185 121.599 156.683 123.242C155.194 124.869 153.349 126.248 151.147 127.378C148.946 128.508 146.388 129.226 143.475 129.532C139.823 129.916 136.547 129.473 133.646 128.202C130.758 126.93 128.473 124.852 126.789 121.969C125.119 119.085 124.284 115.429 124.284 111.002C124.284 106.549 125.138 102.709 126.848 99.4828C128.557 96.2433 130.862 93.6898 133.763 91.8225C136.663 89.9421 139.901 88.814 143.475 88.4384C145.987 88.1743 148.298 88.2764 150.409 88.7447C152.52 89.213 154.372 90.0274 155.964 91.1882C157.557 92.3359 158.839 93.8222 159.81 95.6472C160.782 97.4722 161.371 99.6173 161.578 102.083ZM175.583 125.611L163.928 126.835L177.059 85.4554L191.822 83.9038L204.952 122.524L193.298 123.749L184.596 95.6789L184.285 95.7115L175.583 125.611ZM173.407 110.058L195.318 107.755V115.88L173.407 118.183V110.058ZM224.09 120.512L208.784 122.121V82.121L223.935 80.5286C228.027 80.0985 231.562 80.5277 234.54 81.8162C237.532 83.0903 239.837 85.1397 241.455 87.9644C243.087 90.7747 243.903 94.2632 243.903 98.4298C243.903 102.596 243.094 106.262 241.475 109.427C239.856 112.579 237.564 115.112 234.599 117.025C231.633 118.925 228.13 120.088 224.09 120.512ZM219.584 111.767L223.702 111.334C225.67 111.127 227.347 110.632 228.733 109.849C230.131 109.063 231.193 107.852 231.918 106.213C232.656 104.573 233.025 102.36 233.025 99.5731C233.025 96.7866 232.65 94.6516 231.899 93.1681C231.161 91.6832 230.073 90.6972 228.635 90.2103C227.211 89.722 225.463 89.5867 223.391 89.8045L219.584 90.2046V111.767ZM287.438 93.8542C287.438 98.3073 286.576 102.154 284.854 105.395C283.132 108.623 280.807 111.179 277.881 113.062C274.954 114.932 271.691 116.056 268.091 116.434C264.465 116.816 261.189 116.372 258.262 115.104C255.349 113.822 253.031 111.748 251.308 108.882C249.599 106.002 248.744 102.348 248.744 97.921C248.744 93.4678 249.599 89.628 251.308 86.4015C253.031 83.1606 255.349 80.6057 258.262 78.737C261.189 76.8539 264.465 75.7218 268.091 75.3407C271.691 74.9623 274.954 75.4071 277.881 76.675C280.807 77.9299 283.132 79.9968 284.854 82.8757C286.576 85.7415 287.438 89.401 287.438 93.8542ZM276.327 95.0219C276.327 92.6261 276.01 90.6412 275.375 89.0673C274.754 87.479 273.828 86.3263 272.597 85.6092C271.38 84.8778 269.878 84.606 268.091 84.7938C266.304 84.9816 264.795 85.5699 263.565 86.5586C262.348 87.5328 261.422 88.8802 260.787 90.6005C260.166 92.3065 259.855 94.3574 259.855 96.7532C259.855 99.149 260.166 101.141 260.787 102.729C261.422 104.303 262.348 105.456 263.565 106.187C264.795 106.905 266.304 107.169 268.091 106.981C269.878 106.793 271.38 106.212 272.597 105.238C273.828 104.249 274.754 102.902 275.375 101.196C276.01 99.4759 276.327 97.4178 276.327 95.0219ZM83.7063 167.767C83.6027 166.476 83.1171 165.511 82.2494 164.873C81.3948 164.234 80.0934 164.006 78.3452 164.19C77.2315 164.307 76.3186 164.54 75.6063 164.888C74.9071 165.222 74.3891 165.634 74.0524 166.126C73.7157 166.617 73.5409 167.156 73.528 167.743C73.5021 168.228 73.5862 168.655 73.7805 169.025C73.9877 169.381 74.3114 169.692 74.7517 169.958C75.192 170.212 75.7553 170.426 76.4416 170.601C77.1279 170.776 77.9437 170.912 78.889 171.008L82.1523 171.368C84.3537 171.605 86.2379 172.026 87.8048 172.629C89.3717 173.233 90.6537 174.003 91.6508 174.94C92.6479 175.864 93.3795 176.946 93.8457 178.186C94.3249 179.425 94.5709 180.805 94.5838 182.327C94.5709 184.959 93.9169 187.254 92.622 189.213C91.327 191.172 89.4753 192.753 87.0667 193.957C84.671 195.159 81.7897 195.937 78.4229 196.291C74.9653 196.655 71.9481 196.457 69.3712 195.7C66.8072 194.94 64.8129 193.568 63.3885 191.582C61.977 189.582 61.2648 186.91 61.2518 183.565L71.5078 182.487C71.5726 183.704 71.8769 184.701 72.4208 185.477C72.9647 186.253 73.7287 186.804 74.7128 187.13C75.7099 187.455 76.8948 187.546 78.2675 187.401C79.42 187.28 80.3847 187.036 81.1617 186.667C81.9387 186.299 82.5279 185.84 82.9293 185.29C83.3307 184.74 83.5379 184.139 83.5509 183.487C83.5379 182.876 83.3372 182.363 82.9487 181.948C82.5732 181.519 81.9516 181.168 81.084 180.894C80.2164 180.608 79.0444 180.38 77.5682 180.209L73.6057 179.766C70.0834 179.368 67.3057 178.378 65.2726 176.794C63.2525 175.197 62.2489 172.835 62.2619 169.709C62.2489 167.171 62.9223 164.88 64.282 162.836C65.6547 160.778 67.5518 159.087 69.9733 157.765C72.4078 156.442 75.1984 155.615 78.3452 155.284C81.5566 154.946 84.3343 155.195 86.6782 156.029C89.022 156.863 90.8285 158.197 92.0975 160.03C93.3795 161.848 94.027 164.065 94.04 166.681L83.7063 167.767ZM107.477 192.769L95.8221 193.994L108.953 152.614L123.715 151.062L136.846 189.682L125.192 190.907L116.49 162.837L116.179 162.87L107.477 192.769ZM105.301 177.216L127.212 174.913V183.038L105.301 185.341V177.216ZM175.097 145.662V185.662L166.085 186.609L151.711 167.104L151.477 167.129V188.144L140.678 189.279V149.279L149.846 148.316L163.987 167.767L164.297 167.734V146.797L175.097 145.662ZM195.512 183.516L180.206 185.125V145.125L195.357 143.532C199.449 143.102 202.984 143.531 205.963 144.82C208.954 146.094 211.259 148.143 212.878 150.968C214.509 153.778 215.325 157.267 215.325 161.433C215.325 165.6 214.516 169.266 212.897 172.431C211.278 175.583 208.986 178.115 206.021 180.029C203.055 181.929 199.553 183.091 195.512 183.516ZM191.006 174.771L195.124 174.338C197.092 174.131 198.769 173.636 200.155 172.852C201.553 172.067 202.615 170.855 203.34 169.217C204.078 167.576 204.447 165.363 204.447 162.577C204.447 159.79 204.072 157.655 203.321 156.172C202.583 154.687 201.495 153.701 200.058 153.214C198.633 152.726 196.885 152.59 194.813 152.808L191.006 153.208V174.771ZM227.912 180.111L216.18 141.344L228.223 140.078L233.662 164.116L233.972 164.083L240.421 138.796L249.9 137.799L256.349 161.809L256.66 161.777L262.099 136.517L274.142 135.252L262.409 176.485L252.076 177.571L245.316 155.938L245.005 155.97L238.246 179.024L227.912 180.111ZM288.438 133.749V173.749L277.638 174.884V134.884L288.438 133.749ZM292.468 142.075V133.325L327.044 129.691V138.441L315.078 139.699V170.949L304.434 172.068V140.818L292.468 142.075ZM366.378 140.557L355.422 141.709C355.345 140.805 355.138 140 354.801 139.294C354.477 138.585 354.024 137.995 353.441 137.522C352.871 137.035 352.179 136.692 351.363 136.491C350.547 136.277 349.621 136.225 348.585 136.334C346.772 136.524 345.238 137.128 343.982 138.146C342.738 139.162 341.793 140.53 341.146 142.252C340.511 143.973 340.194 145.992 340.194 148.309C340.194 150.757 340.518 152.774 341.165 154.36C341.825 155.931 342.777 157.068 344.02 157.77C345.264 158.46 346.759 158.713 348.507 158.529C349.505 158.424 350.398 158.207 351.188 157.876C351.978 157.533 352.664 157.09 353.247 156.547C353.83 156.004 354.302 155.375 354.665 154.659C355.04 153.93 355.293 153.129 355.422 152.256L366.378 151.182C366.248 152.889 365.776 154.663 364.96 156.507C364.144 158.338 362.985 160.074 361.483 161.716C359.994 163.344 358.148 164.723 355.947 165.853C353.745 166.983 351.188 167.701 348.274 168.007C344.623 168.391 341.346 167.947 338.446 166.677C335.558 165.405 333.272 163.327 331.589 160.444C329.918 157.56 329.083 153.904 329.083 149.477C329.083 145.024 329.938 141.184 331.647 137.958C333.357 134.718 335.662 132.165 338.562 130.297C341.463 128.417 344.7 127.289 348.274 126.913C350.787 126.649 353.098 126.751 355.209 127.219C357.32 127.688 359.171 128.502 360.764 129.663C362.357 130.811 363.639 132.297 364.61 134.122C365.581 135.947 366.171 138.092 366.378 140.557ZM371.278 165.042V125.042L382.077 123.907V139.532L396.374 138.03V122.405L407.174 121.269V161.269L396.374 162.405V146.78L382.077 148.282V163.907L371.278 165.042Z" fill="#0B9848"/>
</svg>
