<svg width="78" height="44" viewBox="0 0 78 44" fill="none" xmlns="http://www.w3.org/2000/svg">
<path d="M55.2454 15.4308L54.1662 23.0589C54.1662 23.0589 51.8475 20.8678 48.8102 20.2811C46.9611 19.9239 44.6502 21.2207 43 20.902L44.0793 13.2739C44.0793 13.2739 48.2641 12.809 50.4444 13.2302C52.6248 13.6513 55.2454 15.4308 55.2454 15.4308Z" fill="#FCC503"/>
<path d="M67.0111 17.0469L64.0134 14.7932C64.0134 14.7932 65.4925 14.3201 66.4568 13.1634C67.0438 12.4592 67.0344 11.1692 67.5583 10.5408L69.4818 12.3445C69.4818 12.3445 69.7702 14.6876 69.078 15.5179C68.3858 16.3483 67.0111 17.0469 67.0111 17.0469Z" fill="#FCC503"/>
<path d="M70.1542 36.0779L74.72 34.1323C74.72 34.1323 74.2841 36.1407 74.9722 38.0109C75.3911 39.1495 76.8759 39.9919 77.2498 41.008L72.684 42.9536C72.684 42.9536 71.0338 40.8009 70.5398 39.4583C70.0458 38.1157 70.1542 36.0779 70.1542 36.0779Z" fill="#FCC503"/>
<path d="M21.5502 25.4428L24.9361 23.9999C24.9361 23.9999 24.6129 25.4894 25.1232 26.8763C25.4338 27.7207 26.535 28.3454 26.8122 29.099L23.4263 30.5418C23.4263 30.5418 22.2024 28.9453 21.8361 27.9497C21.4698 26.954 21.5502 25.4428 21.5502 25.4428Z" fill="#FCC503"/>
<path d="M3.73024 1.50715L1.32998 0.484325C1.32998 0.484325 1.55913 1.54016 1.19739 2.52334C0.977147 3.12192 0.196582 3.56476 3.6575e-05 4.09894L2.40029 5.12177C2.40029 5.12177 3.26784 3.99004 3.52753 3.28424C3.78722 2.57844 3.73024 1.50715 3.73024 1.50715Z" fill="#FCC503"/>
</svg>
