<svg width="19" height="22" viewBox="0 0 19 22" fill="none" xmlns="http://www.w3.org/2000/svg">
<g clip-path="url(#clip0_382_590)">
<path d="M9.06836 0.758667H14.8049C14.8049 0.758667 16.7972 8.34487 10.7859 10.2414V14.0345H12.0955L12.9328 19.1856L14.2209 19.7242V21.2414H9.71243" fill="#E8AB00"/>
<path d="M9.06836 0.758667H14.8049C14.8049 0.758667 16.7972 8.34487 10.7859 10.2414V14.0345H12.0955L12.9328 19.1856L14.2209 19.7242V21.2414H9.71243" stroke="#E8AB00" stroke-width="3" stroke-miterlimit="10" stroke-linecap="round"/>
<path d="M10.3565 0.758667H4.21642C4.21642 0.758667 2.08241 8.34487 8.52309 10.2414V14.0345H7.11902L6.22162 19.1856L4.84332 19.7242V21.2414H9.66953" fill="#E8AB00"/>
<path d="M10.3565 0.758667H4.21642C4.21642 0.758667 2.08241 8.34487 8.52309 10.2414V14.0345H7.11902L6.22162 19.1856L4.84332 19.7242V21.2414H9.66953" stroke="#E8AB00" stroke-width="3" stroke-miterlimit="10" stroke-linecap="round"/>
<path d="M15.1228 2.11658L18.0855 2.27589C18.0855 2.27589 18.9443 7.96554 13.7917 8.72416" stroke="#E8AB00" stroke-miterlimit="10" stroke-linecap="round"/>
<path d="M3.87741 2.11658L0.914697 2.27589C0.914697 2.27589 0.0516462 7.96554 5.20419 8.72416" stroke="#E8AB00" stroke-miterlimit="10" stroke-linecap="round"/>
</g>
<defs>
<clipPath id="clip0_382_590">
<rect width="19" height="22" fill="white"/>
</clipPath>
</defs>
</svg>
