<svg width="78" height="43" viewBox="0 0 78 43" fill="none" xmlns="http://www.w3.org/2000/svg">
<path d="M55.2454 14.9465L54.1662 22.5745C54.1662 22.5745 51.8474 20.3834 48.8102 19.7968C46.9611 19.4396 44.6502 20.7364 43 20.4176L44.0792 12.7896C44.0792 12.7896 48.2641 12.3246 50.4444 12.7458C52.6247 13.1669 55.2454 14.9465 55.2454 14.9465Z" fill="#FF8300"/>
<path d="M67.0111 16.5625L64.0134 14.3089C64.0134 14.3089 65.4926 13.8357 66.4568 12.679C67.0439 11.9748 67.0345 10.6848 67.5584 10.0564L69.4818 11.8601C69.4818 11.8601 69.7703 14.2032 69.0781 15.0335C68.3859 15.8639 67.0111 16.5625 67.0111 16.5625Z" fill="#FF8300"/>
<path d="M70.1542 35.5935L74.7199 33.6479C74.7199 33.6479 74.2841 35.6563 74.9722 37.5265C75.3911 38.6652 76.8759 39.5075 77.2498 40.5237L72.684 42.4693C72.684 42.4693 71.0337 40.3165 70.5398 38.9739C70.0458 37.6314 70.1542 35.5935 70.1542 35.5935Z" fill="#FF8300"/>
<path d="M21.5502 24.9584L24.9361 23.5156C24.9361 23.5156 24.6129 25.005 25.1232 26.3919C25.4339 27.2363 26.535 27.861 26.8122 28.6146L23.4263 30.0574C23.4263 30.0574 22.2025 28.4609 21.8361 27.4653C21.4698 26.4697 21.5502 24.9584 21.5502 24.9584Z" fill="#FF8300"/>
<path d="M3.73021 1.02277L1.32995 -4.96408e-05C1.32995 -4.96408e-05 1.5591 1.05579 1.19736 2.03897C0.977116 2.63755 0.196552 3.08038 6.05738e-06 3.61457L2.40026 4.63739C2.40026 4.63739 3.26781 3.50566 3.5275 2.79987C3.78719 2.09407 3.73021 1.02277 3.73021 1.02277Z" fill="#FF8300"/>
</svg>
