<svg width="32" height="23" viewBox="0 0 32 23" fill="none" xmlns="http://www.w3.org/2000/svg">
<path d="M1 5C1 2.23858 3.23858 0 6 0H31V9H4C2.34315 9 1 7.65685 1 6V5Z" fill="#EECE5E"/>
<path d="M1 19.875C1 21.6009 2.39911 23 4.125 23H31V18H2.875C1.83947 18 1 18.8395 1 19.875Z" fill="#EECE5E"/>
<path d="M31 10H2C1.44772 10 1 10.4477 1 11C1 11.5523 1.44772 12 2 12H31V10Z" fill="#DE4646"/>
<path d="M30.0908 16C29.1817 16 28.7725 15.6253 27.9639 15.2727C27.0278 14.8646 26.909 14 25.6597 14C24.419 14 23.5328 15.0909 23.5328 15.0909C23.5328 15.0909 23.0011 16 21.7603 16C20.7678 16 20.047 15.3939 19.8107 15.0909C19.5743 14.7273 18.8535 14 17.861 14C16.8684 14 15.5568 15.0909 15.5568 15.0909C15.5568 15.0909 14.9187 16 13.7844 16C12.65 16 11.8938 15.3939 11.6574 15.0909C11.4211 14.7273 10.7003 14 9.70775 14C8.71518 14 7.87622 14.7273 7.58082 15.0909C7.28541 15.3939 6.4819 16 5.63113 16C4.78036 16 3.97685 15.2727 3.68144 14.9091C3.5042 14.6061 2.81809 14 1.909 14.9091" stroke="#29BB68" stroke-width="3" stroke-linecap="round"/>
</svg>
