<svg width="32" height="32" viewBox="0 0 22 20" fill="none" xmlns="http://www.w3.org/2000/svg">
<path d="M11 16.5003L10.8143 16.9645C10.9335 17.0122 11.0665 17.0122 11.1857 16.9645L11 16.5003ZM9.86331 4.43938L10.2045 4.07385L10.2045 4.07385L9.86331 4.43938ZM12.1367 4.43938L11.7955 4.07385L11.7955 4.07385L12.1367 4.43938ZM10.3401 4.88443L9.99898 5.24995L9.99898 5.24995L10.3401 4.88443ZM11.6599 4.88443L11.3187 4.5189L11.3187 4.5189L11.6599 4.88443ZM9.52215 4.80491L9.99898 5.24995L10.6813 4.5189L10.2045 4.07385L9.52215 4.80491ZM12.001 5.24995L12.4779 4.80491L11.7955 4.07385L11.3187 4.5189L12.001 5.24995ZM15.0831 2.80029C13.8561 2.80029 12.673 3.25491 11.7955 4.07385L12.4779 4.80491C13.1633 4.16516 14.0999 3.80029 15.0831 3.80029V2.80029ZM19.75 8.01438C19.75 6.37956 19.2505 5.06953 18.3924 4.16433C17.5341 3.25886 16.3561 2.80029 15.0831 2.80029V3.80029C16.1115 3.80029 17.0168 4.16672 17.6667 4.85228C18.3167 5.5381 18.75 6.58512 18.75 8.01438H19.75ZM6.91688 3.80029C7.9001 3.80029 8.8367 4.16516 9.52215 4.80491L10.2045 4.07385C9.32703 3.25491 8.14391 2.80029 6.91688 2.80029V3.80029ZM3.25 8.01438C3.25 6.58273 3.6766 5.53602 4.32216 4.8513C4.9668 4.16758 5.87105 3.80029 6.91688 3.80029V2.80029C5.62916 2.80029 4.44998 3.25801 3.59456 4.1653C2.74007 5.07161 2.25 6.38194 2.25 8.01438H3.25ZM11 16.5003C11.1857 16.0361 11.1858 16.0361 11.1858 16.0361C11.1858 16.0361 11.1859 16.0361 11.1858 16.0361C11.1857 16.0361 11.1855 16.036 11.1852 16.0359C11.1845 16.0356 11.1834 16.0351 11.1817 16.0344C11.1784 16.0331 11.1732 16.031 11.1661 16.0281C11.1518 16.0222 11.1301 16.0132 11.1013 16.0011C11.0438 15.9769 10.9583 15.9403 10.8487 15.8915C10.6296 15.794 10.3148 15.6484 9.93624 15.4573C9.17791 15.0745 8.17018 14.5127 7.16562 13.7952C5.11836 12.3328 3.25 10.3426 3.25 8.01438H2.25C2.25 10.8721 4.50664 13.1248 6.58438 14.6089C7.64232 15.3646 8.69708 15.952 9.48563 16.35C9.88054 16.5493 10.2102 16.702 10.4423 16.8052C10.5583 16.8568 10.65 16.8961 10.7134 16.9228C10.745 16.9361 10.7696 16.9463 10.7866 16.9533C10.7951 16.9568 10.8017 16.9594 10.8063 16.9613C10.8087 16.9623 10.8105 16.963 10.8118 16.9635C10.8125 16.9638 10.813 16.964 10.8134 16.9642C10.8136 16.9643 10.8139 16.9644 10.814 16.9644C10.8141 16.9645 10.8143 16.9645 11 16.5003ZM18.75 8.01438C18.75 10.3426 16.8816 12.3328 14.8344 13.7952C13.8298 14.5127 12.8221 15.0745 12.0638 15.4573C11.6852 15.6484 11.3704 15.794 11.1512 15.8915C11.0417 15.9403 10.9562 15.9769 10.8987 16.0011C10.8699 16.0132 10.8482 16.0222 10.8339 16.0281C10.8268 16.031 10.8216 16.0331 10.8183 16.0344C10.8166 16.0351 10.8155 16.0356 10.8148 16.0359C10.8145 16.036 10.8143 16.0361 10.8142 16.0361C10.8141 16.0361 10.8142 16.0361 10.8142 16.0361C10.8142 16.0361 10.8143 16.0361 11 16.5003C11.1857 16.9645 11.1858 16.9645 11.186 16.9644C11.1861 16.9644 11.1864 16.9643 11.1866 16.9642C11.187 16.964 11.1875 16.9638 11.1882 16.9635C11.1895 16.963 11.1913 16.9623 11.1937 16.9613C11.1983 16.9594 11.2049 16.9568 11.2134 16.9533C11.2304 16.9463 11.255 16.9361 11.2866 16.9228C11.35 16.8961 11.4417 16.8568 11.5577 16.8052C11.7898 16.702 12.1195 16.5493 12.5144 16.35C13.3029 15.952 14.3577 15.3646 15.4156 14.6089C17.4934 13.1248 19.75 10.8721 19.75 8.01438H18.75ZM9.99898 5.24995C10.5516 5.7657 11.4484 5.7657 12.001 5.24995L11.3187 4.5189C11.1503 4.67605 10.8497 4.67605 10.6813 4.5189L9.99898 5.24995Z" fill="#098D42"/>
</svg>
