<svg width="32" height="32" viewBox="0 0 32 32" fill="none" xmlns="http://www.w3.org/2000/svg">
<path d="M10.0021 18.3273C9.8146 17.958 9.36319 17.8106 8.99384 17.9981C8.62449 18.1856 8.47707 18.637 8.66457 19.0063L10.0021 18.3273ZM12.6222 21.8224L12.2935 22.4965L12.6222 21.8224ZM17.4008 22.6008L17.3084 21.8566L17.4008 22.6008ZM24.4655 19.4967C24.7903 19.2396 24.8451 18.7679 24.588 18.4432C24.3309 18.1184 23.8592 18.0635 23.5345 18.3206L24.4655 19.4967ZM23.25 22.6668C23.25 23.081 23.5858 23.4168 24 23.4168C24.4142 23.4168 24.75 23.081 24.75 22.6668H23.25ZM24 18.6668H24.75C24.75 18.2526 24.4142 17.9168 24 17.9168V18.6668ZM20 17.9168C19.5858 17.9168 19.25 18.2526 19.25 18.6668C19.25 19.081 19.5858 19.4168 20 19.4168V17.9168ZM21.9979 13.673C22.1854 14.0423 22.6368 14.1898 23.0062 14.0023C23.3755 13.8148 23.5229 13.3633 23.3354 12.994L21.9979 13.673ZM19.3778 10.1779L19.7065 9.50378V9.50378L19.3778 10.1779ZM14.5992 9.39948L14.6916 10.1438L14.5992 9.39948ZM7.53448 12.5036C7.20972 12.7607 7.15486 13.2324 7.41196 13.5572C7.66906 13.8819 8.14075 13.9368 8.46552 13.6797L7.53448 12.5036ZM8.75 9.3335C8.75 8.91928 8.41421 8.5835 8 8.5835C7.58579 8.5835 7.25 8.91928 7.25 9.3335H8.75ZM8 13.3335H7.25C7.25 13.7477 7.58579 14.0835 8 14.0835V13.3335ZM12 14.0835C12.4142 14.0835 12.75 13.7477 12.75 13.3335C12.75 12.9193 12.4142 12.5835 12 12.5835V14.0835ZM8.66457 19.0063C9.42391 20.5021 10.7039 21.7214 12.2935 22.4965L12.9509 21.1483C11.6303 20.5043 10.6018 19.5086 10.0021 18.3273L8.66457 19.0063ZM12.2935 22.4965C13.8826 23.2714 15.7064 23.5669 17.4932 23.3451L17.3084 21.8566C15.8024 22.0435 14.272 21.7925 12.9509 21.1483L12.2935 22.4965ZM17.4932 23.3451C20.4433 22.979 22.51 21.0448 24.4655 19.4967L23.5345 18.3206C21.4242 19.9912 19.74 21.5548 17.3084 21.8566L17.4932 23.3451ZM24.75 22.6668V18.6668H23.25V22.6668H24.75ZM24 17.9168H20V19.4168H24V17.9168ZM23.3354 12.994C22.5761 11.4982 21.2961 10.2789 19.7065 9.50378L19.0491 10.852C20.3697 11.496 21.3982 12.4917 21.9979 13.673L23.3354 12.994ZM19.7065 9.50378C18.1174 8.72888 16.2936 8.43343 14.5068 8.65519L14.6916 10.1438C16.1976 9.95686 17.728 10.2078 19.0491 10.852L19.7065 9.50378ZM14.5068 8.65519C11.5567 9.02132 9.48997 10.9556 7.53448 12.5036L8.46552 13.6797C10.5758 12.0091 12.26 10.4455 14.6916 10.1438L14.5068 8.65519ZM7.25 9.3335V13.3335H8.75V9.3335H7.25ZM8 14.0835H12V12.5835H8V14.0835Z" fill="#FBC200"/>
</svg>
